<?xml version="1.0" encoding="utf-8"?>
<!-- Generator: Adobe Illustrator 24.1.0, SVG Export Plug-In . SVG Version: 6.00 Build 0)  -->
<svg version="1.1" class="arrow" xmlns="http://www.w3.org/2000/svg" xmlns:xlink="http://www.w3.org/1999/xlink" x="0px" y="0px"
	 width="31.7px" height="22.1px" viewBox="0 0 31.7 22.1" style="enable-background:new 0 0 31.7 22.1;" xml:space="preserve">
<style type="text/css">
	
</style>
<g>
	<path class="st0-arrow" d="M3.4,10.1c8.9,0,26.7,0,27,0c0.7,0,1.4,0.1,1.4,1c0,0.9-0.7,0.9-1.4,0.9c-0.2,0-26.4,0-26.9,0
		c1.9,1.9,7.3,7.3,8.3,8.3c0.5,0.5,0.8,1,0.2,1.6c-0.6,0.6-1.1,0.2-1.5-0.2C7,18.2,3.7,14.9,0.3,11.5c-0.3-0.3-0.4-0.5,0-0.9
		C3.6,7.3,7,3.9,10.4,0.5c0.5-0.5,1-0.8,1.5-0.2c0.5,0.6,0.2,1.1-0.2,1.5C8.9,4.6,6.2,7.3,3.4,10.1z"/>
</g>
</svg>
