<?xml version="1.0" encoding="utf-8"?>
<!-- Generator: Adobe Illustrator 24.0.3, SVG Export Plug-In . SVG Version: 6.00 Build 0)  -->
<svg version="1.1" class="social" xmlns="http://www.w3.org/2000/svg" xmlns:xlink="http://www.w3.org/1999/xlink" x="0px" y="0px"
	 width="22.9px" height="21.9px" viewBox="0 0 22.9 21.9" style="enable-background:new 0 0 22.9 21.9;" xml:space="preserve">
<style type="text/css">
	.st0-social{fill:#FFFFFF;}
	.st1-social{fill-rule:evenodd;clip-rule:evenodd;fill:#FFFFFF;}
</style>
<path id="LinkedIn_3_" class="st0-social" d="M22.9,13.4v8.5H18V14c0-2-0.7-3.3-2.5-3.3c-1.4,0-2.2,0.9-2.6,1.8c-0.1,0.3-0.2,0.8-0.2,1.2
	v8.2H7.9c0,0,0.1-13.5,0-14.7h4.8v2.1c0,0,0.1-0.1,0.1-0.1h-0.1v0.1c0.8-1,1.9-2.4,4.5-2.4C20.4,6.8,22.9,8.9,22.9,13.4z M2.8,0
	C1.1,0,0,1.1,0,2.5C0,4,1.1,5.1,2.7,5.1h0c1.7,0,2.8-1.1,2.8-2.5C5.5,1.1,4.5,0,2.8,0z M0.3,21.9h4.8V7.1H0.3V21.9z"/>
</svg>
