<?xml version="1.0" encoding="utf-8"?>
<!-- Generator: Adobe Illustrator 24.0.3, SVG Export Plug-In . SVG Version: 6.00 Build 0)  -->
<svg version="1.1" id="ilawyer" xmlns="http://www.w3.org/2000/svg" xmlns:xlink="http://www.w3.org/1999/xlink" x="0px" y="0px"
	 width="210.8px" height="18.2px" viewBox="0 0 210.8 18.2" style="enable-background:new 0 0 210.8 18.2;" xml:space="preserve">
<style type="text/css">
	.ilawyer-st0{fill:#51565F;}
</style>
<g>
	<path class="ilawyer-st0" d="M54.2,0h0.9v1c0,0.7-0.4,1.1-1.2,1.1h-0.9v-1C53.1,0.4,53.5,0,54.2,0z M53.1,4.9c0-0.7,0.4-1.1,1.2-1.1h0.9
		v10.5h-0.9c-0.8,0-1.2-0.4-1.2-1.1V4.9z"/>
	<path class="ilawyer-st0" d="M60.5,12.2c0.3,0.2,0.6,0.4,1,0.4v1c0,0.5-0.2,0.8-0.6,0.9c-0.4,0.1-0.7,0.1-1.1-0.1c-0.6-0.3-1-0.6-1.3-1.2
		c-0.4-0.6-0.6-1.3-0.6-2.1V1.1c0-0.7,0.4-1.1,1.2-1.1H60v10.9C60,11.5,60.2,11.9,60.5,12.2z"/>
	<path class="ilawyer-st0" d="M71.3,4.7c1,0.8,1.6,1.9,1.6,3.2v6.5h-0.6c-0.5,0-0.9-0.3-1.2-0.8c-0.8,0.8-2.1,1.2-3.2,1.2
		c-1.3,0-2.5-0.4-3.5-1.2c-1-0.8-1.6-1.9-1.6-3.1V7.8c0-1.2,0.5-2.3,1.6-3.2c1-0.8,2.1-1.2,3.5-1.2C69.1,3.4,70.3,3.9,71.3,4.7z
		 M67.8,5.5c-0.8,0-1.6,0.2-2.2,0.7c-0.5,0.4-0.8,0.9-0.8,1.5v2.4c0,0.6,0.3,1.1,0.8,1.5c0.6,0.5,1.3,0.7,2.2,0.7
		c0.8,0,1.6-0.2,2.2-0.7c0.5-0.4,0.8-0.9,0.8-1.5V7.8c0-0.6-0.3-1.1-0.8-1.5C69.3,5.8,68.6,5.5,67.8,5.5z"/>
	<path class="ilawyer-st0" d="M87.9,4.9c0-0.7,0.4-1.1,1.2-1.1H90v6.5c0,1.3-0.4,2.4-1.1,3.2c-0.8,0.8-1.8,1.2-3.1,1.2
		c-1.3,0-2.4-0.5-3.2-1.3c-0.8,0.9-1.9,1.3-3.2,1.3c-1.3,0-2.4-0.4-3.1-1.2c-0.7-0.8-1.1-1.8-1.1-3.2V4.9c0-0.7,0.4-1.1,1.2-1.1h0.9
		v6.5c0,0.8,0.2,1.4,0.5,1.7c0.3,0.4,0.9,0.5,1.6,0.5c0.6,0,1.2-0.2,1.5-0.6c0.4-0.4,0.6-1,0.6-1.7V4.9c0-0.7,0.4-1.1,1.2-1.1h0.9
		v6.5c0,0.7,0.2,1.3,0.6,1.7c0.4,0.4,0.9,0.6,1.5,0.6c0.7,0,1.2-0.2,1.6-0.5c0.4-0.4,0.5-0.9,0.5-1.7L87.9,4.9L87.9,4.9z"/>
	<path class="ilawyer-st0" d="M101.7,3.8l-4.1,11.6c-0.1,0.3-0.2,0.5-0.3,0.8c-0.1,0.2-0.2,0.5-0.3,0.7c-0.3,0.4-0.7,0.8-1.2,1
		C95.3,18,95,18.1,94.7,18c-0.4-0.1-0.6-0.4-0.6-0.9v-1c0.2,0,0.5-0.1,0.7-0.2c0.3-0.1,0.5-0.3,0.5-0.5l0.4-1.1
		c-0.7-0.2-1.1-0.5-1.3-1l-3.1-8.7c-0.1-0.3-0.1-0.5,0-0.7c0.1-0.2,0.3-0.3,0.6-0.3h1.3l3.1,8.7h0l2.8-7.9c0.2-0.5,0.6-0.8,1.1-0.8
		L101.7,3.8L101.7,3.8z"/>
	<path class="ilawyer-st0" d="M110.2,4c0.5,0.3,1,0.7,1.3,1.1c0.4,0.6,0.6,1.2,0.6,1.8c0,0.6-0.1,1.1-0.4,1.6c-0.2,0.4-0.5,0.7-0.9,1
		c-0.4,0.3-0.8,0.5-1.3,0.6c-0.4,0.1-0.9,0.2-1.4,0.2h-2.5c-0.2,0-0.3,0-0.4,0c-0.1,0-0.3-0.1-0.3-0.2v0.9c0,0.5,0.2,0.9,0.7,1.2
		c0.4,0.2,0.9,0.4,1.4,0.4c0.5,0.1,1,0,1.5-0.1c0.4-0.1,0.7-0.2,1-0.4c0.1-0.1,0.2-0.1,0.3-0.2c0.3-0.4,0.7-0.4,1.2-0.2l1,0.5
		c-0.2,0.4-0.5,0.8-0.8,1.2c-0.5,0.5-1.1,0.8-1.8,1.1c-0.6,0.2-1.3,0.3-2.1,0.3c-0.6,0-1.2-0.1-1.6-0.2c-0.6-0.1-1.1-0.4-1.5-0.6
		c-0.5-0.4-0.9-0.8-1.2-1.4c-0.2-0.5-0.4-1.1-0.4-1.8V7.2c0-0.5,0.1-1,0.4-1.5c0.4-0.7,1-1.3,1.8-1.7c0.7-0.4,1.5-0.5,2.4-0.5
		C108.3,3.4,109.3,3.6,110.2,4z M109.4,7.9c0.3-0.2,0.5-0.5,0.6-0.9c0-0.4-0.1-0.7-0.4-1c-0.4-0.3-1-0.5-1.5-0.5
		c-0.6,0-1.1,0-1.6,0.1c-0.4,0.1-0.8,0.3-1.1,0.5c-0.3,0.3-0.5,0.6-0.5,1v1h3.5C108.8,8.1,109.1,8.1,109.4,7.9z"/>
	<path class="ilawyer-st0" d="M114,7.5c0-1.2,0.4-2.2,1.2-2.9c0.7-0.6,1.5-0.8,2.4-0.8h1.4v0.9c0,0.8-0.4,1.2-1.1,1.2h-0.3
		c-0.4,0-0.7,0.1-1,0.4c-0.3,0.3-0.5,0.7-0.5,1.2v6.8h-0.9c-0.8,0-1.2-0.4-1.2-1.1L114,7.5L114,7.5z"/>
	<path class="ilawyer-st0" d="M132.6,6.1c-0.4-0.4-0.9-0.5-1.6-0.5c-0.7,0-1.2,0.2-1.5,0.6c-0.4,0.4-0.6,1-0.6,1.7v6.5h-0.9
		c-0.8,0-1.2-0.4-1.2-1.1V7.8c0-0.7-0.2-1.3-0.6-1.7c-0.4-0.4-0.9-0.6-1.5-0.6c-0.7,0-1.3,0.2-1.6,0.5c-0.4,0.4-0.5,1-0.5,1.7v6.5
		h-0.9c-0.8,0-1.2-0.4-1.2-1.1V7.8c0-1.3,0.4-2.4,1.1-3.2c0.7-0.8,1.8-1.2,3.1-1.2c1.1,0,2,0.3,2.8,1c0.1,0.1,0.2,0.2,0.4,0.4
		c0.1-0.1,0.3-0.3,0.4-0.4c0.7-0.6,1.7-1,2.8-1c1.3,0,2.3,0.4,3.1,1.2c0.7,0.8,1.1,1.8,1.1,3.2v6.5h-0.9c-0.8,0-1.2-0.4-1.2-1.1V7.8
		C133.1,7,133,6.5,132.6,6.1z"/>
	<path class="ilawyer-st0" d="M145.8,4.7c1,0.8,1.6,1.9,1.6,3.2v6.5h-0.6c-0.5,0-0.9-0.3-1.2-0.8c-0.8,0.8-2.1,1.2-3.2,1.2
		c-1.3,0-2.5-0.4-3.5-1.2c-1-0.8-1.6-1.9-1.6-3.1V7.8c0-1.2,0.5-2.3,1.6-3.2c1-0.8,2.1-1.2,3.5-1.2C143.6,3.4,144.8,3.9,145.8,4.7z
		 M142.3,5.5c-0.8,0-1.6,0.2-2.2,0.7c-0.5,0.4-0.8,0.9-0.8,1.5v2.4c0,0.6,0.3,1.1,0.8,1.5c0.6,0.5,1.3,0.7,2.2,0.7s1.6-0.2,2.2-0.7
		c0.5-0.4,0.8-0.9,0.8-1.5V7.8c0-0.6-0.3-1.1-0.8-1.5C143.9,5.8,143.2,5.5,142.3,5.5z"/>
	<path class="ilawyer-st0" d="M149.7,7.5c0-1.2,0.4-2.2,1.2-2.9c0.7-0.6,1.5-0.8,2.4-0.8h1.4v0.9c0,0.8-0.4,1.2-1.1,1.2h-0.3
		c-0.4,0-0.7,0.1-1,0.4c-0.3,0.3-0.5,0.7-0.5,1.2v6.8h-0.9c-0.8,0-1.2-0.4-1.2-1.1V7.5z"/>
	<path class="ilawyer-st0" d="M156.3,1.1c0-0.7,0.4-1.1,1.2-1.1h0.9v8.1h0.8c0.4,0,0.8,0,1.1-0.4l2-3.2c0.3-0.5,0.7-0.7,1.3-0.7h1.6
		l-2.5,4.1c-0.1,0.2-0.3,0.4-0.4,0.6c0.7,0.3,1.2,0.9,1.6,1.7l1.8,4.1h-1.3c-0.6,0-1-0.2-1.2-0.7l-1.1-2.6c-0.2-0.5-0.6-0.8-1.2-0.8
		h-2.3v4.1h-0.9c-0.8,0-1.2-0.4-1.2-1.1L156.3,1.1L156.3,1.1z"/>
	<path class="ilawyer-st0" d="M174.2,4c0.5,0.3,1,0.7,1.3,1.1c0.4,0.6,0.6,1.2,0.6,1.8c0,0.6-0.1,1.1-0.4,1.6c-0.2,0.4-0.5,0.7-0.9,1
		c-0.4,0.3-0.8,0.5-1.3,0.6c-0.4,0.1-0.9,0.2-1.4,0.2h-2.5c-0.2,0-0.3,0-0.4,0c-0.1,0-0.3-0.1-0.3-0.2v0.9c0,0.5,0.2,0.9,0.7,1.2
		c0.4,0.2,0.9,0.4,1.4,0.4c0.5,0.1,1,0,1.5-0.1c0.4-0.1,0.7-0.2,1-0.4c0.1-0.1,0.2-0.1,0.3-0.2c0.3-0.4,0.7-0.4,1.2-0.2l1,0.5
		c-0.2,0.4-0.5,0.8-0.8,1.2c-0.5,0.5-1.1,0.8-1.8,1.1c-0.6,0.2-1.3,0.3-2.1,0.3c-0.6,0-1.2-0.1-1.6-0.2c-0.6-0.1-1.1-0.4-1.5-0.6
		c-0.5-0.4-0.9-0.8-1.2-1.4c-0.2-0.5-0.4-1.1-0.4-1.8V7.2c0-0.5,0.1-1,0.4-1.5c0.4-0.7,1-1.3,1.8-1.7c0.7-0.4,1.5-0.5,2.4-0.5
		C172.3,3.4,173.3,3.6,174.2,4z M173.4,7.9c0.3-0.2,0.5-0.5,0.6-0.9c0-0.4-0.1-0.7-0.4-1c-0.4-0.3-1-0.5-1.5-0.5
		c-0.6,0-1.1,0-1.6,0.1c-0.4,0.1-0.8,0.3-1.1,0.5c-0.3,0.3-0.5,0.6-0.5,1v1h3.5C172.8,8.1,173.1,8.1,173.4,7.9z"/>
	<path class="ilawyer-st0" d="M182.6,3.8v0.9c0,0.8-0.4,1.2-1.1,1.2h-1.4v5.1c0,0.5,0.2,1,0.5,1.2c0.3,0.2,0.6,0.4,1,0.4v1
		c0,0.5-0.2,0.8-0.6,0.9c-0.4,0.1-0.7,0.1-1.1-0.1c-0.6-0.3-1-0.6-1.3-1.2c-0.4-0.6-0.5-1.3-0.5-2.1V1.1c0-0.7,0.4-1.1,1.1-1.1h1
		v3.8H182.6z"/>
	<path class="ilawyer-st0" d="M185.5,0h0.9v1c0,0.7-0.4,1.1-1.2,1.1h-0.9v-1C184.4,0.4,184.8,0,185.5,0z M184.4,4.9c0-0.7,0.4-1.1,1.2-1.1
		h0.9v10.5h-0.9c-0.8,0-1.2-0.4-1.2-1.1V4.9z"/>
	<path class="ilawyer-st0" d="M190.5,4.6c0.9-0.8,2-1.2,3.3-1.2c1.3,0,2.4,0.4,3.3,1.2c1,0.8,1.5,1.8,1.5,3v6.7h-0.9c-0.8,0-1.2-0.4-1.2-1.1
		V7.6c0-0.5-0.2-1-0.7-1.4c-0.5-0.5-1.2-0.7-2-0.7c-0.8,0-1.5,0.2-2,0.7c-0.5,0.4-0.7,0.9-0.7,1.4v6.7h-0.9c-0.8,0-1.2-0.4-1.2-1.1
		V7.6C189,6.4,189.5,5.5,190.5,4.6z"/>
	<path class="ilawyer-st0" d="M209.2,4.7c1,0.8,1.6,1.9,1.6,3.2v6.4c0,0.6-0.1,1.2-0.4,1.7c-0.5,1.1-1.6,1.7-2.6,2.1
		c-0.6,0.2-1.2,0.2-1.8,0.2c-0.6,0-1.1-0.1-1.6-0.2c-0.5-0.1-0.8-0.3-1-0.5c-0.1-0.2-0.1-0.5,0-0.9l0.2-0.8c0.5,0.2,1.1,0.3,1.8,0.4
		c0.7,0,1.3-0.1,1.8-0.2c1-0.3,1.5-0.9,1.5-1.8v-0.4c-0.9,0.6-1.8,0.8-2.9,0.8c-1.3,0-2.5-0.4-3.5-1.2c-1-0.8-1.6-1.9-1.6-3.1V7.8
		c0-1.2,0.5-2.3,1.6-3.2c1-0.8,2.1-1.2,3.5-1.2C207.1,3.4,208.2,3.9,209.2,4.7z M205.7,5.5c-0.8,0-1.6,0.2-2.2,0.7
		c-0.5,0.4-0.8,0.9-0.8,1.5v2.4c0,0.6,0.3,1.1,0.8,1.5c0.6,0.5,1.3,0.7,2.2,0.7s1.6-0.2,2.2-0.7c0.5-0.4,0.8-0.9,0.8-1.5V7.8
		c0-0.6-0.3-1.1-0.8-1.5C207.3,5.8,206.6,5.5,205.7,5.5z"/>
	<g>
		<path class="ilawyer-st0" d="M4.1,7.7C4.1,6.8,4,5.9,3,5.9c-0.6,0-1,0.3-1,0.9C2,7.7,2.5,7.9,3,8.3C3.7,8.7,4.8,9.5,5.3,10
			c0.6,0.6,0.8,1.2,0.8,2.1C6.2,14,4.9,15,3.1,15C0.8,15,0,13.7,0,11.9v-0.7h1.9v0.6c0,1,0.3,1.7,1.2,1.7c0.8,0,1.2-0.4,1.2-1.2
			c0-0.6-0.3-1-0.8-1.3c-1-0.8-2.2-1.3-3-2.3C0.2,8.2,0,7.6,0,7.1c0-1.7,1-2.7,3-2.7c3,0,2.9,2.3,2.9,3.3H4.1z"/>
		<path class="ilawyer-st0" d="M8.3,14.8V4.7h1.9v10.1H8.3z"/>
		<path class="ilawyer-st0" d="M11.9,4.7h6.3v1.5H16v8.6h-1.9V6.1h-2.2L11.9,4.7L11.9,4.7z"/>
		<path class="ilawyer-st0" d="M19.8,14.8V4.7h5.3v1.5h-3.4v2.5h3.2v1.5h-3.2v3.1h3.4v1.5H19.8z"/>
		<path class="ilawyer-st0" d="M31,14.8V4.7h3c0.8,0,1.6,0.1,2.1,0.7c0.4,0.6,0.5,1.1,0.5,1.8c0,0.9-0.2,1.7-1.2,2.1v0
			c1.1,0.1,1.5,1,1.5,2.3c0,0.4,0,0.8-0.1,1.2c-0.4,1.3-1.1,1.8-2.5,1.8L31,14.8L31,14.8z M33.2,8.7c0.5,0,1.1,0,1.3-0.4
			c0.2-0.3,0.2-0.6,0.2-1.1c0-0.8-0.2-1.1-1-1.2h-0.9v2.6H33.2z M33.3,13.3c0.4,0,0.8,0,1.1-0.1c0.5-0.2,0.6-0.9,0.6-1.4
			c0-1.1-0.2-1.5-1.4-1.5h-0.7v3.1L33.3,13.3L33.3,13.3z"/>
		<path class="ilawyer-st0" d="M41.4,7.3c0.2,0.5,0.4,1,0.4,1.5h0c0.1-0.8,0.4-1.3,0.6-1.9l0.9-2.3h2.1l-2.7,5.8v4.3h-1.9v-4.3l-2.6-5.8h2.1
			L41.4,7.3z"/>
	</g>
</g>
</svg>
