<?xml version="1.0" encoding="utf-8"?>
<!-- Generator: Adobe Illustrator 24.0.3, SVG Export Plug-In . SVG Version: 6.00 Build 0)  -->
<svg version="1.1" class="social" xmlns="http://www.w3.org/2000/svg" xmlns:xlink="http://www.w3.org/1999/xlink" x="0px" y="0px"
	 width="23.7px" height="19.3px" viewBox="0 0 23.7 19.3" style="enable-background:new 0 0 23.7 19.3;" xml:space="preserve">
<style type="text/css">
	.st0-social{fill:#FFFFFF;}
	.st1-social{fill-rule:evenodd;clip-rule:evenodd;fill:#FFFFFF;}
</style>
<path class="st0-social" d="M23.7,2.3c-0.9,0.4-1.8,0.6-2.8,0.8c1-0.6,1.8-1.6,2.1-2.7c-0.9,0.6-2,1-3.1,1.2C19.1,0.6,17.8,0,16.4,0
	c-2.7,0-4.9,2.2-4.9,4.9c0,0.4,0,0.8,0.1,1.1c-4-0.2-7.6-2.1-10-5.1C1.2,1.6,1,2.4,1,3.3c0,1.7,0.9,3.2,2.2,4C2.4,7.4,1.6,7.1,1,6.8
	c0,0,0,0,0,0.1c0,2.4,1.7,4.3,3.9,4.8c-0.4,0.1-0.8,0.2-1.3,0.2c-0.3,0-0.6,0-0.9-0.1c0.6,1.9,2.4,3.3,4.5,3.4
	c-1.7,1.3-3.8,2.1-6,2.1c-0.4,0-0.8,0-1.2-0.1c2.2,1.4,4.7,2.2,7.5,2.2c8.9,0,13.8-7.4,13.8-13.8c0-0.2,0-0.4,0-0.6
	C22.2,4.1,23.1,3.3,23.7,2.3z"/>
</svg>
