<?xml version="1.0" encoding="utf-8"?>
<!-- Generator: Adobe Illustrator 24.0.3, SVG Export Plug-In . SVG Version: 6.00 Build 0)  -->
<svg version="1.1" class="social" xmlns="http://www.w3.org/2000/svg" xmlns:xlink="http://www.w3.org/1999/xlink" x="0px" y="0px"
	 width="12.1px" height="25.8px" viewBox="0 0 12.1 25.8" style="enable-background:new 0 0 12.1 25.8;" xml:space="preserve">
<style type="text/css">
	.st0-social{fill:#FFFFFF;}
	.st1-social{fill-rule:evenodd;clip-rule:evenodd;fill:#FFFFFF;}
</style>
<path id="Facebook_3_" class="st0-social" d="M2.6,5.1c0,0.7,0,3.5,0,3.5H0v4.3h2.6v12.9H8V12.9h3.5c0,0,0.3-2,0.5-4.3c-0.5,0-4,0-4,0
	s0-2.5,0-2.9c0-0.4,0.5-1.1,1.1-1.1c0.6,0,1.8,0,2.9,0c0-0.6,0-2.6,0-4.6c-1.4,0-3.2,0-4,0C2.5,0,2.6,4.5,2.6,5.1z"/>
</svg>
