<svg id="Component_33_1" data-name="Component 33 – 1" xmlns="http://www.w3.org/2000/svg" width="29.532" height="24" viewBox="0 0 29.532 24">
  <path id="Path_189" data-name="Path 189" d="M1395.329,1073.767a12.107,12.107,0,0,1-3.48.954,6.076,6.076,0,0,0,2.664-3.352,12.135,12.135,0,0,1-3.848,1.47,6.064,6.064,0,0,0-10.324,5.526,17.2,17.2,0,0,1-12.488-6.33,6.066,6.066,0,0,0,1.875,8.089,6.034,6.034,0,0,1-2.744-.758c0,.025,0,.051,0,.076a6.062,6.062,0,0,0,4.86,5.941,6.075,6.075,0,0,1-2.736.1,6.065,6.065,0,0,0,5.66,4.208,12.157,12.157,0,0,1-7.525,2.594,12.335,12.335,0,0,1-1.445-.084,17.15,17.15,0,0,0,9.288,2.722c11.144,0,17.239-9.232,17.239-17.239q0-.394-.018-.784A12.312,12.312,0,0,0,1395.329,1073.767Z" transform="translate(-1365.797 -1070.926)" fill="#fff"/>
</svg>
