<?xml version="1.0" encoding="utf-8"?>
<!-- Generator: Adobe Illustrator 24.0.3, SVG Export Plug-In . SVG Version: 6.00 Build 0)  -->
<svg class="social" data-name="Component 34 – 1" xmlns="http://www.w3.org/2000/svg" width="25.005" height="25.057" viewBox="0 0 25.005 25.057">
  <path id="Path_210" data-name="Path 210" d="M271.361,193.932c-2-.056-4.019-.044-6.03-.185a6.544,6.544,0,0,1-6.29-6.331c-.16-3.12-.132-6.251-.117-9.377a19.1,19.1,0,0,1,.324-3.932A6.357,6.357,0,0,1,265.3,169c3.151-.152,6.312-.135,9.469-.121a18.7,18.7,0,0,1,3.932.33,6.414,6.414,0,0,1,5.091,6.064c.131,2.118.126,4.247.128,6.371,0,1.926.007,3.858-.125,5.778a6.6,6.6,0,0,1-6.354,6.324C275.424,193.889,273.4,193.876,271.361,193.932ZM281.7,181.417c-.051-1.892-.061-3.775-.163-5.653a4.378,4.378,0,0,0-4.523-4.5q-5.595-.139-11.2,0a4.321,4.321,0,0,0-4.514,4.5q-.138,5.617,0,11.239a4.32,4.32,0,0,0,4.486,4.48q5.618.137,11.241,0a4.376,4.376,0,0,0,4.5-4.475C281.635,185.141,281.646,183.273,281.7,181.417Z" transform="translate(-258.912 -168.875)" fill="#fff"/>
  <path id="Path_211" data-name="Path 211" d="M338.094,241.553a6.461,6.461,0,1,1-6.475-6.456A6.484,6.484,0,0,1,338.094,241.553Zm-2.292.006a4.168,4.168,0,1,0-4.194,4.166A4.211,4.211,0,0,0,335.8,241.559Z" transform="translate(-319.134 -229.061)" fill="#fff"/>
  <path id="Path_212" data-name="Path 212" d="M455.854,217.5a1.515,1.515,0,1,1-1.539-1.516A1.492,1.492,0,0,1,455.854,217.5Z" transform="translate(-435.151 -211.686)" fill="#fff"/>
</svg>
