<svg class="stars" xmlns="http://www.w3.org/2000/svg" viewBox="0 0 190.78 33.57">
  <defs>
    
  </defs>
  <title>Asset 1</title>
  <g id="Layer_2" data-name="Layer 2">
    <g id="Layer_1-2" data-name="Layer 1">
      <polygon class="cls-1-stars" points="17.65 0 21.82 12.82 35.3 12.82 24.39 20.75 28.56 33.57 17.65 25.64 6.74 33.57 10.91 20.75 0 12.82 13.48 12.82 17.65 0"/>
      <polygon class="cls-1-stars" points="56.52 0 60.69 12.82 74.17 12.82 63.26 20.75 67.43 33.57 56.52 25.64 45.61 33.57 49.78 20.75 38.87 12.82 52.35 12.82 56.52 0"/>
      <polygon class="cls-1-stars" points="95.39 0 99.55 12.82 113.04 12.82 102.13 20.75 106.3 33.57 95.39 25.64 84.48 33.57 88.65 20.75 77.74 12.82 91.22 12.82 95.39 0"/>
      <polygon class="cls-1-stars" points="134.26 0 138.42 12.82 151.91 12.82 141 20.75 145.16 33.57 134.26 25.64 123.35 33.57 127.52 20.75 116.61 12.82 130.09 12.82 134.26 0"/>
      <polygon class="cls-1-stars" points="173.13 0 177.29 12.82 190.78 12.82 179.87 20.75 184.03 33.57 173.13 25.64 162.22 33.57 166.39 20.75 155.48 12.82 168.96 12.82 173.13 0"/>
    </g>
  </g>
</svg>
